<svg xmlns="http://www.w3.org/2000/svg" version="1.1" xmlns:xlink="http://www.w3.org/1999/xlink" xmlns:svgjs="http://svgjs.dev/svgjs" width="1500" height="1500" viewBox="0 0 1500 1500"><rect width="1500" height="1500" fill="#ffffff"></rect><g transform="matrix(0.6666666666666666,0,0,0.6666666666666666,249.39393939393938,438.5856950067477)"><svg viewBox="0 0 396 247" data-background-color="#001f3f" preserveAspectRatio="xMidYMid meet" height="935" width="1500" xmlns="http://www.w3.org/2000/svg" xmlns:xlink="http://www.w3.org/1999/xlink"><g id="tight-bounds" transform="matrix(1,0,0,1,0.2400000000000091,-0.09999999999999432)"><svg viewBox="0 0 395.52 247.2" height="247.2" width="395.52"><g><svg></svg></g><g><svg viewBox="0 0 395.52 247.2" height="247.2" width="395.52"><g transform="matrix(1,0,0,1,75.54432,69.31250594212267)"><svg viewBox="0 0 244.43135999999998 108.57498811575465" height="108.57498811575465" width="244.43135999999998"><g><svg viewBox="0 0 244.43135999999998 108.57498811575465" height="108.57498811575465" width="244.43135999999998"><g transform="matrix(1,0,0,1,0,65.34953570985238)"><svg viewBox="0 0 244.43135999999998 43.225452405902274" height="43.225452405902274" width="244.43135999999998"><g id="textblocktransform"><svg viewBox="0 0 244.43135999999998 43.225452405902274" height="43.225452405902274" width="244.43135999999998" id="textblock"><g><svg viewBox="0 0 244.43135999999998 23.77183824232633" height="23.77183824232633" width="244.43135999999998"><g transform="matrix(1,0,0,1,0,0)"><svg width="244.43135999999998" viewBox="3.32 -36.25 377.78000000000003 36.74" height="23.77183824232633" data-palette-color="#ffffff"><path d="M33.81-17.09L33.81-1.88Q30.4-0.56 27.32-0.04 24.24 0.49 21.61 0.49L21.61 0.49Q17.31 0.49 13.93-0.74 10.55-1.98 8.18-4.24 5.81-6.49 4.57-9.69 3.32-12.89 3.32-16.82L3.32-16.82Q3.32-19.9 4.08-22.53 4.83-25.17 6.18-27.33 7.52-29.49 9.4-31.15 11.28-32.81 13.53-33.95 15.77-35.08 18.31-35.67 20.85-36.25 23.54-36.25L23.54-36.25Q24.41-36.25 25.49-36.18 26.56-36.11 27.77-35.95 28.98-35.79 30.27-35.53 31.57-35.28 32.89-34.89L32.89-34.89 31.93-30.18 31.45-29.93Q28.88-31.13 26.64-31.54 24.39-31.96 22.75-31.96L22.75-31.96Q19.78-31.96 17.36-30.9 14.94-29.83 13.21-27.97 11.47-26.1 10.53-23.55 9.59-21 9.59-17.99L9.59-17.99Q9.59-15.14 10.46-12.57 11.33-10.01 12.99-8.06 14.65-6.1 17.04-4.96 19.43-3.81 22.51-3.81L22.51-3.81Q23.8-3.81 25.35-4.03 26.9-4.25 28.42-4.74L28.42-4.74 28.42-17.09 33.81-17.09ZM61.13-19.78L61.13-19.78Q62.6-19.36 63.94-18.63 65.28-17.9 66.32-16.85 67.36-15.8 67.98-14.44 68.6-13.09 68.6-11.43L68.6-11.43Q68.6-9.45 67.64-7.42 66.67-5.4 64.79-3.75 62.91-2.1 60.13-1.05 57.35 0 53.71 0L53.71 0 43.55 0 43.55-35.77 54.71-35.77Q57.79-35.77 60.08-35.11 62.38-34.45 63.91-33.37 65.45-32.3 66.22-30.88 66.99-29.47 66.99-27.98L66.99-27.98Q66.99-26.71 66.5-25.55 66.01-24.39 65.21-23.35 64.4-22.31 63.34-21.41 62.28-20.51 61.13-19.78ZM49.61-16.5L49.61-4.3 54.29-4.3Q56.47-4.3 57.99-4.87 59.52-5.44 60.47-6.36 61.42-7.28 61.85-8.44 62.28-9.59 62.28-10.79L62.28-10.79Q62.28-12.28 61.69-13.35 61.11-14.43 60.03-15.12 58.96-15.82 57.47-16.16 55.98-16.5 54.17-16.5L54.17-16.5 49.61-16.5ZM49.61-20.68L57.57-20.68Q59.1-21.75 60.04-23.19 60.98-24.63 60.98-26.39L60.98-26.39Q60.98-28.74 59.14-30.1 57.3-31.47 53.9-31.47L53.9-31.47 49.61-31.47 49.61-20.68ZM91.25-9.5L99.78-35.77 105.46-35.77 92.62 0 85.81 0 72.99-35.77 79.56-35.77 88.08-9.5 89.45-4.44 89.91-4.44 91.25-9.5ZM145.18 0L142.13-9.23 127.8-9.23 124.79 0 119.37 0 132.05-35.77 138.91-35.77 151.58 0 145.18 0ZM129.09-13.38L140.79-13.38 136.54-26.61 135.2-31.71 134.71-31.71 133.39-26.61 129.09-13.38ZM153.72-25.88L160.17-25.88 164.32-8.84 165.08-4.44 165.54-4.44 166.39-8.79 170.98-25.1 177.58-25.1 182.14-8.84 183.04-4.44 183.53-4.44 184.29-8.79 188.49-25.88 193.96-25.88 186.14 0 179.55 0 175.21-14.94 174.13-19.85 173.64-19.85 172.52-14.92 168.05 0 161.44 0 153.72-25.88ZM213.22-3.81L213.22-3.81Q212.58-3.27 211.69-2.53 210.8-1.78 209.71-1.11 208.63-0.44 207.35 0.02 206.06 0.49 204.65 0.49L204.65 0.49Q203.21 0.49 201.97-0.04 200.74-0.56 199.83-1.5 198.91-2.44 198.39-3.75 197.86-5.05 197.86-6.64L197.86-6.64Q197.86-8.3 198.53-9.89 199.2-11.47 200.78-12.72 202.35-13.96 204.94-14.73 207.53-15.5 211.34-15.5L211.34-15.5 213.12-15.5 213.12-17.5Q213.12-18.58 212.75-19.43 212.39-20.29 211.73-20.9 211.07-21.51 210.15-21.83 209.24-22.14 208.11-22.14L208.11-22.14Q207.24-22.14 206.24-21.94 205.23-21.73 204.26-21.36 203.28-21 202.35-20.5 201.43-20 200.69-19.41L200.69-19.41 200.25-19.65 199.13-23.75Q202.08-25.29 204.62-25.83 207.16-26.37 209.38-26.37L209.38-26.37Q211.68-26.37 213.47-25.9 215.27-25.44 216.51-24.48 217.76-23.51 218.41-22.03 219.05-20.56 219.05-18.53L219.05-18.53 219.05-6.57Q219.05-6.2 219.11-5.76 219.17-5.32 219.36-4.93 219.54-4.54 219.89-4.27 220.25-4 220.83-4L220.83-4Q221.18-4 221.66-4.1 222.15-4.2 222.64-4.42L222.64-4.42 222.64-1.49Q221.32-0.59 220.02-0.05 218.71 0.49 217.47 0.49L217.47 0.49Q216.49 0.49 215.78 0.12 215.07-0.24 214.58-0.84 214.1-1.44 213.77-2.21 213.44-2.98 213.22-3.81ZM213.12-6.96L213.12-12.62 211.58-12.62Q209.04-12.62 207.49-12.27 205.94-11.91 205.09-11.29 204.23-10.67 203.95-9.85 203.67-9.03 203.67-8.08L203.67-8.08Q203.67-7.08 203.96-6.32 204.26-5.57 204.76-5.05 205.26-4.54 205.94-4.27 206.63-4 207.41-4L207.41-4Q207.99-4 208.63-4.14 209.26-4.27 209.96-4.61 210.65-4.96 211.44-5.52 212.22-6.08 213.12-6.96L213.12-6.96ZM227.91 0L227.91-25.88 232.7-25.88 233.53-18.16Q233.87-18.8 234.24-19.47 234.6-20.14 234.97-20.76 235.33-21.39 235.65-21.9 235.97-22.41 236.19-22.75L236.19-22.75Q236.7-23.51 237.35-24.18 238-24.85 238.75-25.33 239.51-25.81 240.39-26.09 241.27-26.37 242.29-26.37L242.29-26.37Q243-26.37 243.71-26.2 244.42-26.03 244.9-25.66L244.9-25.66 244.27-20.21Q243.83-20.34 243.24-20.37 242.66-20.41 242.19-20.41L242.19-20.41Q240.63-20.41 239.41-19.96 238.19-19.51 237.2-18.71 236.21-17.92 235.4-16.85 234.58-15.77 233.82-14.53L233.82-14.53 233.82 0 227.91 0ZM270.61-5.32L270.61-2.37Q269.54-1.61 268.29-1.07 267.05-0.54 265.73-0.18 264.41 0.17 263.1 0.33 261.8 0.49 260.62 0.49L260.62 0.49Q257.91 0.49 255.58-0.34 253.25-1.17 251.53-2.78 249.81-4.39 248.83-6.75 247.86-9.11 247.86-12.16L247.86-12.16Q247.86-15.41 248.95-18.04 250.05-20.68 251.9-22.52 253.74-24.37 256.17-25.37 258.6-26.37 261.23-26.37L261.23-26.37Q263.43-26.37 265.32-25.65 267.22-24.93 268.6-23.51 269.98-22.09 270.76-19.97 271.54-17.85 271.54-15.04L271.54-15.04Q271.54-14.36 271.48-13.59 271.42-12.82 271.27-12.08L271.27-12.08 253.98-12.08Q253.98-10.11 254.68-8.59 255.38-7.08 256.65-6.07 257.91-5.05 259.7-4.53 261.48-4 263.63-4L263.63-4Q264.24-4 265.06-4.05 265.87-4.1 266.8-4.25 267.73-4.39 268.71-4.65 269.68-4.91 270.61-5.32L270.61-5.32ZM253.98-14.97L266.04-14.97Q266.04-16.75 265.59-18.09 265.14-19.43 264.36-20.34 263.58-21.24 262.54-21.69 261.5-22.14 260.31-22.14L260.31-22.14Q258.96-22.14 257.82-21.61 256.67-21.07 255.81-20.1 254.96-19.14 254.47-17.82 253.98-16.5 253.98-14.97L253.98-14.97ZM278.3 0L278.3-25.88 283.08-25.88 283.91-21.46Q284.77-22.24 285.84-23.11 286.92-23.97 288.19-24.69 289.46-25.42 290.86-25.89 292.26-26.37 293.78-26.37L293.78-26.37Q295.56-26.37 297.01-25.7 298.46-25.02 299.49-23.82 300.51-22.61 301.08-20.92 301.64-19.24 301.64-17.24L301.64-17.24 301.64 0 295.71 0 295.71-16.53Q295.71-17.85 295.34-18.85 294.97-19.85 294.33-20.51 293.68-21.17 292.79-21.51 291.9-21.85 290.87-21.85L290.87-21.85Q289.06-21.85 287.45-20.92 285.84-20 284.21-18.48L284.21-18.48 284.21 0 278.3 0ZM330.96-5.32L330.96-2.37Q329.88-1.61 328.64-1.07 327.39-0.54 326.07-0.18 324.76 0.17 323.45 0.33 322.14 0.49 320.97 0.49L320.97 0.49Q318.26 0.49 315.93-0.34 313.6-1.17 311.88-2.78 310.16-4.39 309.18-6.75 308.2-9.11 308.2-12.16L308.2-12.16Q308.2-15.41 309.3-18.04 310.4-20.68 312.24-22.52 314.09-24.37 316.52-25.37 318.94-26.37 321.58-26.37L321.58-26.37Q323.78-26.37 325.67-25.65 327.56-24.93 328.94-23.51 330.32-22.09 331.1-19.97 331.88-17.85 331.88-15.04L331.88-15.04Q331.88-14.36 331.82-13.59 331.76-12.82 331.62-12.08L331.62-12.08 314.33-12.08Q314.33-10.11 315.03-8.59 315.72-7.08 316.99-6.07 318.26-5.05 320.04-4.53 321.83-4 323.97-4L323.97-4Q324.58-4 325.4-4.05 326.22-4.1 327.15-4.25 328.08-4.39 329.05-4.65 330.03-4.91 330.96-5.32L330.96-5.32ZM314.33-14.97L326.39-14.97Q326.39-16.75 325.94-18.09 325.49-19.43 324.71-20.34 323.93-21.24 322.89-21.69 321.85-22.14 320.65-22.14L320.65-22.14Q319.31-22.14 318.16-21.61 317.02-21.07 316.16-20.1 315.31-19.14 314.82-17.82 314.33-16.5 314.33-14.97L314.33-14.97ZM337.01-1.22L338.06-5.66 338.5-5.93Q339.45-5.42 340.49-5 341.53-4.59 342.55-4.31 343.58-4.03 344.55-3.88 345.53-3.74 346.38-3.74L346.38-3.74Q348.61-3.74 349.86-4.66 351.12-5.59 351.12-7.03L351.12-7.03Q351.12-8.01 350.55-8.64 349.97-9.28 349.03-9.73 348.09-10.18 346.9-10.52 345.7-10.86 344.44-11.24 343.19-11.62 341.99-12.11 340.79-12.6 339.85-13.35 338.91-14.11 338.34-15.2 337.77-16.28 337.77-17.87L337.77-17.87Q337.77-19.65 338.53-21.22 339.3-22.78 340.73-23.91 342.16-25.05 344.2-25.71 346.24-26.37 348.78-26.37L348.78-26.37Q349.41-26.37 350.25-26.32 351.1-26.27 352.01-26.16 352.93-26.05 353.85-25.88 354.78-25.71 355.59-25.44L355.59-25.44 354.51-21.07 353.98-20.75Q353.24-21.12 352.4-21.39 351.56-21.66 350.72-21.81 349.87-21.97 349.08-22.06 348.29-22.14 347.68-22.14L347.68-22.14Q345.53-22.14 344.32-21.29 343.11-20.43 343.11-18.99L343.11-18.99Q343.11-17.99 343.7-17.35 344.28-16.7 345.22-16.25 346.16-15.8 347.38-15.47 348.61-15.14 349.86-14.76 351.12-14.38 352.34-13.89 353.56-13.4 354.5-12.65 355.44-11.89 356.03-10.79 356.61-9.69 356.61-8.08L356.61-8.08Q356.61-6.27 355.83-4.7 355.05-3.13 353.61-1.98 352.17-0.83 350.14-0.17 348.12 0.49 345.65 0.49L345.65 0.49Q343.62 0.49 341.35 0.05 339.08-0.39 337.01-1.22L337.01-1.22ZM361.49-1.22L362.54-5.66 362.98-5.93Q363.93-5.42 364.97-5 366.01-4.59 367.04-4.31 368.06-4.03 369.04-3.88 370.01-3.74 370.87-3.74L370.87-3.74Q373.09-3.74 374.35-4.66 375.6-5.59 375.6-7.03L375.6-7.03Q375.6-8.01 375.03-8.64 374.46-9.28 373.52-9.73 372.58-10.18 371.38-10.52 370.18-10.86 368.93-11.24 367.67-11.62 366.47-12.11 365.28-12.6 364.34-13.35 363.4-14.11 362.82-15.2 362.25-16.28 362.25-17.87L362.25-17.87Q362.25-19.65 363.02-21.22 363.79-22.78 365.22-23.91 366.64-25.05 368.68-25.71 370.72-26.37 373.26-26.37L373.26-26.37Q373.9-26.37 374.74-26.32 375.58-26.27 376.5-26.16 377.41-26.05 378.34-25.88 379.27-25.71 380.07-25.44L380.07-25.44 379-21.07 378.46-20.75Q377.73-21.12 376.89-21.39 376.04-21.66 375.2-21.81 374.36-21.97 373.57-22.06 372.77-22.14 372.16-22.14L372.16-22.14Q370.01-22.14 368.81-21.29 367.6-20.43 367.6-18.99L367.6-18.99Q367.6-17.99 368.18-17.35 368.77-16.7 369.71-16.25 370.65-15.8 371.87-15.47 373.09-15.14 374.35-14.76 375.6-14.38 376.83-13.89 378.05-13.4 378.99-12.65 379.93-11.89 380.51-10.79 381.1-9.69 381.1-8.08L381.1-8.08Q381.1-6.27 380.32-4.7 379.54-3.13 378.1-1.98 376.65-0.83 374.63-0.17 372.6 0.49 370.14 0.49L370.14 0.49Q368.11 0.49 365.84 0.05 363.57-0.39 361.49-1.22L361.49-1.22Z" opacity="1" transform="matrix(1,0,0,1,0,0)" fill="#000000" class="wordmark-text-0" data-fill-palette-color="primary" id="text-0"></path></svg></g></svg></g><g transform="matrix(1,0,0,1,46.68638976,29.38379872722176)"><svg viewBox="0 0 151.05858048 13.841653678680512" height="13.841653678680512" width="151.05858048"><g transform="matrix(1,0,0,1,0,0)"><svg width="151.05858048" viewBox="4.25 -37 413.46 37.5" height="13.841653678680512" data-palette-color="#ffffff"><path d="M39.45 0L34.95 0 34.95-27.1 23.25-6.25 20.5-6.25 8.75-27.1 8.75 0 4.25 0 4.25-35.5 9-35.5 21.85-12.45 34.75-35.5 39.45-35.5 39.45 0ZM44.95-7.55L44.95-7.55Q44.95-10.05 46.37-11.88 47.8-13.7 50.3-14.7 52.8-15.7 56.1-15.7L56.1-15.7Q57.85-15.7 59.8-15.43 61.75-15.15 63.25-14.6L63.25-14.6 63.25-16.5Q63.25-19.5 61.45-21.23 59.65-22.95 56.35-22.95L56.35-22.95Q54.2-22.95 52.22-22.18 50.25-21.4 48.05-19.95L48.05-19.95 46.45-23.05Q49-24.8 51.55-25.68 54.1-26.55 56.85-26.55L56.85-26.55Q61.85-26.55 64.75-23.78 67.65-21 67.65-16.05L67.65-16.05 67.65-5Q67.65-4.2 67.97-3.83 68.3-3.45 69.05-3.4L69.05-3.4 69.05 0Q68.4 0.1 67.92 0.15 67.45 0.2 67.15 0.2L67.15 0.2Q65.6 0.2 64.82-0.65 64.05-1.5 63.95-2.45L63.95-2.45 63.85-4.1Q62.15-1.9 59.4-0.7 56.65 0.5 53.95 0.5L53.95 0.5Q51.35 0.5 49.3-0.58 47.25-1.65 46.1-3.48 44.95-5.3 44.95-7.55ZM61.95-5.7L61.95-5.7Q62.55-6.4 62.9-7.13 63.25-7.85 63.25-8.35L63.25-8.35 63.25-11.6Q61.7-12.2 60-12.53 58.3-12.85 56.65-12.85L56.65-12.85Q53.3-12.85 51.22-11.53 49.15-10.2 49.15-7.9L49.15-7.9Q49.15-6.65 49.82-5.48 50.5-4.3 51.82-3.55 53.15-2.8 55.1-2.8L55.1-2.8Q57.15-2.8 59-3.63 60.85-4.45 61.95-5.7ZM97.85 0L93.1 0 84.05-12.7 79.1-8.05 79.1 0 74.7 0 74.7-36.5 79.1-36.5 79.1-12.65 92.6-26.05 97.35-26.05 86.95-15.25 97.85 0ZM111.84 0.5L111.84 0.5Q108.89 0.5 106.47-0.58 104.04-1.65 102.27-3.53 100.49-5.4 99.52-7.85 98.54-10.3 98.54-13.05L98.54-13.05Q98.54-16.75 100.24-19.8 101.94-22.85 104.97-24.7 107.99-26.55 111.89-26.55L111.89-26.55Q115.84-26.55 118.77-24.68 121.69-22.8 123.32-19.78 124.94-16.75 124.94-13.25L124.94-13.25Q124.94-12.75 124.92-12.28 124.89-11.8 124.84-11.55L124.84-11.55 103.19-11.55Q103.39-9 104.62-7.03 105.84-5.05 107.79-3.93 109.74-2.8 111.99-2.8L111.99-2.8Q114.39-2.8 116.52-4 118.64-5.2 119.44-7.15L119.44-7.15 123.24-6.1Q122.39-4.2 120.72-2.7 119.04-1.2 116.77-0.35 114.49 0.5 111.84 0.5ZM103.04-14.6L103.04-14.6 120.84-14.6Q120.64-17.15 119.39-19.1 118.14-21.05 116.19-22.15 114.24-23.25 111.89-23.25L111.89-23.25Q109.59-23.25 107.64-22.15 105.69-21.05 104.47-19.1 103.24-17.15 103.04-14.6ZM140.44-7.55L140.44-7.55Q140.44-10.05 141.86-11.88 143.29-13.7 145.79-14.7 148.29-15.7 151.59-15.7L151.59-15.7Q153.34-15.7 155.29-15.43 157.24-15.15 158.74-14.6L158.74-14.6 158.74-16.5Q158.74-19.5 156.94-21.23 155.14-22.95 151.84-22.95L151.84-22.95Q149.69-22.95 147.71-22.18 145.74-21.4 143.54-19.95L143.54-19.95 141.94-23.05Q144.49-24.8 147.04-25.68 149.59-26.55 152.34-26.55L152.34-26.55Q157.34-26.55 160.24-23.78 163.14-21 163.14-16.05L163.14-16.05 163.14-5Q163.14-4.2 163.46-3.83 163.79-3.45 164.54-3.4L164.54-3.4 164.54 0Q163.89 0.1 163.41 0.15 162.94 0.2 162.64 0.2L162.64 0.2Q161.09 0.2 160.31-0.65 159.54-1.5 159.44-2.45L159.44-2.45 159.34-4.1Q157.64-1.9 154.89-0.7 152.14 0.5 149.44 0.5L149.44 0.5Q146.84 0.5 144.79-0.58 142.74-1.65 141.59-3.48 140.44-5.3 140.44-7.55ZM157.44-5.7L157.44-5.7Q158.04-6.4 158.39-7.13 158.74-7.85 158.74-8.35L158.74-8.35 158.74-11.6Q157.19-12.2 155.49-12.53 153.79-12.85 152.14-12.85L152.14-12.85Q148.79-12.85 146.71-11.53 144.64-10.2 144.64-7.9L144.64-7.9Q144.64-6.65 145.31-5.48 145.99-4.3 147.31-3.55 148.64-2.8 150.59-2.8L150.59-2.8Q152.64-2.8 154.49-3.63 156.34-4.45 157.44-5.7ZM181.13-13L181.13-13Q181.13-16.7 182.66-19.78 184.18-22.85 186.86-24.7 189.53-26.55 192.98-26.55L192.98-26.55Q196.13-26.55 198.63-24.9 201.13-23.25 202.53-20.9L202.53-20.9 202.53-36.5 206.93-36.5 206.93-5Q206.93-4.2 207.26-3.83 207.58-3.45 208.33-3.4L208.33-3.4 208.33 0Q207.08 0.2 206.38 0.2L206.38 0.2Q205.08 0.2 204.11-0.7 203.13-1.6 203.13-2.7L203.13-2.7 203.13-4.9Q201.58-2.4 198.98-0.95 196.38 0.5 193.58 0.5L193.58 0.5Q190.88 0.5 188.61-0.58 186.33-1.65 184.66-3.55 182.98-5.45 182.06-7.88 181.13-10.3 181.13-13ZM202.53-9.15L202.53-9.15 202.53-16.65Q201.93-18.35 200.58-19.73 199.23-21.1 197.56-21.93 195.88-22.75 194.23-22.75L194.23-22.75Q192.28-22.75 190.71-21.93 189.13-21.1 188.01-19.73 186.88-18.35 186.28-16.6 185.68-14.85 185.68-12.95L185.68-12.95Q185.68-11 186.36-9.25 187.03-7.5 188.26-6.15 189.48-4.8 191.11-4.05 192.73-3.3 194.63-3.3L194.63-3.3Q195.83-3.3 197.11-3.75 198.38-4.2 199.53-5 200.68-5.8 201.48-6.88 202.28-7.95 202.53-9.15ZM218.68 0L214.28 0 214.28-26.1 218.68-26.1 218.68 0ZM218.68-31L214.28-31 214.28-36.5 218.68-36.5 218.68-31ZM231.58 0L227.18 0 227.18-22.65 223.63-22.65 223.63-26.1 227.18-26.1 227.18-26.65Q227.18-29.85 228.15-32.18 229.13-34.5 230.93-35.75 232.73-37 235.18-37L235.18-37Q236.73-37 238.23-36.58 239.73-36.15 240.93-35.4L240.93-35.4 239.83-32.15Q239.13-32.65 238.1-32.95 237.08-33.25 236.08-33.25L236.08-33.25Q233.93-33.25 232.75-31.58 231.58-29.9 231.58-26.8L231.58-26.8 231.58-26.1 238.53-26.1 238.53-22.65 231.58-22.65 231.58 0ZM248.73 0L244.33 0 244.33-22.65 240.78-22.65 240.78-26.1 244.33-26.1 244.33-26.65Q244.33-29.85 245.3-32.18 246.28-34.5 248.08-35.75 249.88-37 252.33-37L252.33-37Q253.88-37 255.38-36.58 256.88-36.15 258.08-35.4L258.08-35.4 256.98-32.15Q256.28-32.65 255.25-32.95 254.23-33.25 253.23-33.25L253.23-33.25Q251.08-33.25 249.9-31.58 248.73-29.9 248.73-26.8L248.73-26.8 248.73-26.1 255.68-26.1 255.68-22.65 248.73-22.65 248.73 0ZM271.02 0.5L271.02 0.5Q268.07 0.5 265.65-0.58 263.22-1.65 261.45-3.53 259.67-5.4 258.7-7.85 257.72-10.3 257.72-13.05L257.72-13.05Q257.72-16.75 259.42-19.8 261.12-22.85 264.15-24.7 267.17-26.55 271.07-26.55L271.07-26.55Q275.02-26.55 277.95-24.68 280.87-22.8 282.5-19.78 284.12-16.75 284.12-13.25L284.12-13.25Q284.12-12.75 284.1-12.28 284.07-11.8 284.02-11.55L284.02-11.55 262.37-11.55Q262.57-9 263.8-7.03 265.02-5.05 266.97-3.93 268.92-2.8 271.17-2.8L271.17-2.8Q273.57-2.8 275.7-4 277.82-5.2 278.62-7.15L278.62-7.15 282.42-6.1Q281.57-4.2 279.9-2.7 278.22-1.2 275.95-0.35 273.67 0.5 271.02 0.5ZM262.22-14.6L262.22-14.6 280.02-14.6Q279.82-17.15 278.57-19.1 277.32-21.05 275.37-22.15 273.42-23.25 271.07-23.25L271.07-23.25Q268.77-23.25 266.82-22.15 264.87-21.05 263.65-19.1 262.42-17.15 262.22-14.6ZM302.82-26.25L302.82-22.25Q299.52-22.2 297-20.58 294.47-18.95 293.42-16.1L293.42-16.1 293.42 0 289.02 0 289.02-26.1 293.12-26.1 293.12-20.05Q294.47-22.75 296.7-24.43 298.92-26.1 301.37-26.3L301.37-26.3Q301.87-26.3 302.22-26.3 302.57-26.3 302.82-26.25L302.82-26.25ZM318.12 0.5L318.12 0.5Q315.17 0.5 312.74-0.58 310.32-1.65 308.54-3.53 306.77-5.4 305.79-7.85 304.82-10.3 304.82-13.05L304.82-13.05Q304.82-16.75 306.52-19.8 308.22-22.85 311.24-24.7 314.27-26.55 318.17-26.55L318.17-26.55Q322.12-26.55 325.04-24.68 327.97-22.8 329.59-19.78 331.22-16.75 331.22-13.25L331.22-13.25Q331.22-12.75 331.19-12.28 331.17-11.8 331.12-11.55L331.12-11.55 309.47-11.55Q309.67-9 310.89-7.03 312.12-5.05 314.07-3.93 316.02-2.8 318.27-2.8L318.27-2.8Q320.67-2.8 322.79-4 324.92-5.2 325.72-7.15L325.72-7.15 329.52-6.1Q328.67-4.2 326.99-2.7 325.32-1.2 323.04-0.35 320.77 0.5 318.12 0.5ZM309.32-14.6L309.32-14.6 327.12-14.6Q326.92-17.15 325.67-19.1 324.42-21.05 322.47-22.15 320.52-23.25 318.17-23.25L318.17-23.25Q315.87-23.25 313.92-22.15 311.97-21.05 310.74-19.1 309.52-17.15 309.32-14.6ZM358.77-15.6L358.77 0 354.37 0 354.37-14.6Q354.37-18.75 353.09-20.68 351.82-22.6 349.22-22.6L349.22-22.6Q347.42-22.6 345.64-21.7 343.87-20.8 342.49-19.28 341.12-17.75 340.52-15.75L340.52-15.75 340.52 0 336.12 0 336.12-26.1 340.12-26.1 340.12-20.5Q341.17-22.35 342.82-23.7 344.47-25.05 346.57-25.8 348.67-26.55 350.97-26.55L350.97-26.55Q353.22-26.55 354.74-25.73 356.27-24.9 357.14-23.43 358.02-21.95 358.39-19.95 358.77-17.95 358.77-15.6L358.77-15.6ZM377.16 0.5L377.16 0.5Q374.21 0.5 371.79-0.58 369.36-1.65 367.59-3.55 365.81-5.45 364.84-7.9 363.86-10.35 363.86-13.1L363.86-13.1Q363.86-16.8 365.51-19.85 367.16-22.9 370.16-24.73 373.16-26.55 377.11-26.55L377.11-26.55Q380.96-26.55 383.84-24.83 386.71-23.1 388.11-20.2L388.11-20.2 383.81-18.85Q382.81-20.7 381.01-21.73 379.21-22.75 377.01-22.75L377.01-22.75Q374.61-22.75 372.64-21.5 370.66-20.25 369.51-18.07 368.36-15.9 368.36-13.1L368.36-13.1Q368.36-10.35 369.54-8.13 370.71-5.9 372.69-4.6 374.66-3.3 377.06-3.3L377.06-3.3Q378.61-3.3 380.04-3.85 381.46-4.4 382.54-5.33 383.61-6.25 384.01-7.35L384.01-7.35 388.31-6.05Q387.51-4.15 385.89-2.68 384.26-1.2 382.04-0.35 379.81 0.5 377.16 0.5ZM404.61 0.5L404.61 0.5Q401.66 0.5 399.24-0.58 396.81-1.65 395.04-3.53 393.26-5.4 392.29-7.85 391.31-10.3 391.31-13.05L391.31-13.05Q391.31-16.75 393.01-19.8 394.71-22.85 397.74-24.7 400.76-26.55 404.66-26.55L404.66-26.55Q408.61-26.55 411.54-24.68 414.46-22.8 416.09-19.78 417.71-16.75 417.71-13.25L417.71-13.25Q417.71-12.75 417.69-12.28 417.66-11.8 417.61-11.55L417.61-11.55 395.96-11.55Q396.16-9 397.39-7.03 398.61-5.05 400.56-3.93 402.51-2.8 404.76-2.8L404.76-2.8Q407.16-2.8 409.29-4 411.41-5.2 412.21-7.15L412.21-7.15 416.01-6.1Q415.16-4.2 413.49-2.7 411.81-1.2 409.54-0.35 407.26 0.5 404.61 0.5ZM395.81-14.6L395.81-14.6 413.61-14.6Q413.41-17.15 412.16-19.1 410.91-21.05 408.96-22.15 407.01-23.25 404.66-23.25L404.66-23.25Q402.36-23.25 400.41-22.15 398.46-21.05 397.24-19.1 396.01-17.15 395.81-14.6Z" opacity="1" transform="matrix(1,0,0,1,0,0)" fill="#000000" class="slogan-text-1" data-fill-palette-color="secondary" id="text-1"></path></svg></g></svg></g></svg></g></svg></g><g transform="matrix(1,0,0,1,92.35027163328859,0)"><svg viewBox="0 0 59.73081673342282 59.73757522495695" height="59.73757522495695" width="59.73081673342282"><g><svg xmlns="http://www.w3.org/2000/svg" data-name="Warstwa 1" viewBox="0.9624932431938872 0.9624932431938872 22.035013513612224 22.037506756806113" x="0" y="0" height="59.73757522495695" width="59.73081673342282" class="icon-icon-0" data-fill-palette-color="accent" id="icon-0"></svg></g></svg></g><g></g></svg></g></svg></g><g><path d="M91.23 63.701A122.216 122.216 0 0 1 304.29 63.701L302.147 63.701A120.072 120.072 0 0 0 93.373 63.701L91.23 63.701M91.23 183.499A122.216 122.216 0 0 0 304.29 183.499L302.147 183.499A120.072 120.072 0 0 1 93.373 183.499L91.23 183.499" fill="#000000" stroke="transparent" data-fill-palette-color="tertiary"></path></g></svg></g><defs></defs><mask id="f4603d8a-87af-47ed-9353-3ce445816866"><g id="SvgjsG1754"><svg viewBox="0 0 395.52 247.2" height="247.2" width="395.52"><g><svg></svg></g><g><svg viewBox="0 0 395.52 247.2" height="247.2" width="395.52"><g transform="matrix(1,0,0,1,75.54432,69.31250594212267)"><svg viewBox="0 0 244.43135999999998 108.57498811575465" height="108.57498811575465" width="244.43135999999998"><g><svg viewBox="0 0 244.43135999999998 108.57498811575465" height="108.57498811575465" width="244.43135999999998"><g transform="matrix(1,0,0,1,0,65.34953570985238)"><svg viewBox="0 0 244.43135999999998 43.225452405902274" height="43.225452405902274" width="244.43135999999998"><g id="SvgjsG1753"><svg viewBox="0 0 244.43135999999998 43.225452405902274" height="43.225452405902274" width="244.43135999999998" id="SvgjsSvg1752"><g><svg viewBox="0 0 244.43135999999998 23.77183824232633" height="23.77183824232633" width="244.43135999999998"><g transform="matrix(1,0,0,1,0,0)"><svg width="244.43135999999998" viewBox="3.32 -36.25 377.78000000000003 36.74" height="23.77183824232633" data-palette-color="#ffffff"><path d="M33.81-17.09L33.81-1.88Q30.4-0.56 27.32-0.04 24.24 0.49 21.61 0.49L21.61 0.49Q17.31 0.49 13.93-0.74 10.55-1.98 8.18-4.24 5.81-6.49 4.57-9.69 3.32-12.89 3.32-16.82L3.32-16.82Q3.32-19.9 4.08-22.53 4.83-25.17 6.18-27.33 7.52-29.49 9.4-31.15 11.28-32.81 13.53-33.95 15.77-35.08 18.31-35.67 20.85-36.25 23.54-36.25L23.54-36.25Q24.41-36.25 25.49-36.18 26.56-36.11 27.77-35.95 28.98-35.79 30.27-35.53 31.57-35.28 32.89-34.89L32.89-34.89 31.93-30.18 31.45-29.93Q28.88-31.13 26.64-31.54 24.39-31.96 22.75-31.96L22.75-31.96Q19.78-31.96 17.36-30.9 14.94-29.83 13.21-27.97 11.47-26.1 10.53-23.55 9.59-21 9.59-17.99L9.59-17.99Q9.59-15.14 10.46-12.57 11.33-10.01 12.99-8.06 14.65-6.1 17.04-4.96 19.43-3.81 22.51-3.81L22.51-3.81Q23.8-3.81 25.35-4.03 26.9-4.25 28.42-4.74L28.42-4.74 28.42-17.09 33.81-17.09ZM61.13-19.78L61.13-19.78Q62.6-19.36 63.94-18.63 65.28-17.9 66.32-16.85 67.36-15.8 67.98-14.44 68.6-13.09 68.6-11.43L68.6-11.43Q68.6-9.45 67.64-7.42 66.67-5.4 64.79-3.75 62.91-2.1 60.13-1.05 57.35 0 53.71 0L53.71 0 43.55 0 43.55-35.77 54.71-35.77Q57.79-35.77 60.08-35.11 62.38-34.45 63.91-33.37 65.45-32.3 66.22-30.88 66.99-29.47 66.99-27.98L66.99-27.98Q66.99-26.71 66.5-25.55 66.01-24.39 65.21-23.35 64.4-22.31 63.34-21.41 62.28-20.51 61.13-19.78ZM49.61-16.5L49.61-4.3 54.29-4.3Q56.47-4.3 57.99-4.87 59.52-5.44 60.47-6.36 61.42-7.28 61.85-8.44 62.28-9.59 62.28-10.79L62.28-10.79Q62.28-12.28 61.69-13.35 61.11-14.43 60.03-15.12 58.96-15.82 57.47-16.16 55.98-16.5 54.17-16.5L54.17-16.5 49.61-16.5ZM49.61-20.68L57.57-20.68Q59.1-21.75 60.04-23.19 60.98-24.63 60.98-26.39L60.98-26.39Q60.98-28.74 59.14-30.1 57.3-31.47 53.9-31.47L53.9-31.47 49.61-31.47 49.61-20.68ZM91.25-9.5L99.78-35.77 105.46-35.77 92.62 0 85.81 0 72.99-35.77 79.56-35.77 88.08-9.5 89.45-4.44 89.91-4.44 91.25-9.5ZM145.18 0L142.13-9.23 127.8-9.23 124.79 0 119.37 0 132.05-35.77 138.91-35.77 151.58 0 145.18 0ZM129.09-13.38L140.79-13.38 136.54-26.61 135.2-31.71 134.71-31.71 133.39-26.61 129.09-13.38ZM153.72-25.88L160.17-25.88 164.32-8.84 165.08-4.44 165.54-4.44 166.39-8.79 170.98-25.1 177.58-25.1 182.14-8.84 183.04-4.44 183.53-4.44 184.29-8.79 188.49-25.88 193.96-25.88 186.14 0 179.55 0 175.21-14.94 174.13-19.85 173.64-19.85 172.52-14.92 168.05 0 161.44 0 153.72-25.88ZM213.22-3.81L213.22-3.81Q212.58-3.27 211.69-2.53 210.8-1.78 209.71-1.11 208.63-0.44 207.35 0.02 206.06 0.49 204.65 0.49L204.65 0.49Q203.21 0.49 201.97-0.04 200.74-0.56 199.83-1.5 198.91-2.44 198.39-3.75 197.86-5.05 197.86-6.64L197.86-6.64Q197.86-8.3 198.53-9.89 199.2-11.47 200.78-12.72 202.35-13.96 204.94-14.73 207.53-15.5 211.34-15.5L211.34-15.5 213.12-15.5 213.12-17.5Q213.12-18.58 212.75-19.43 212.39-20.29 211.73-20.9 211.07-21.51 210.15-21.83 209.24-22.14 208.11-22.14L208.11-22.14Q207.24-22.14 206.24-21.94 205.23-21.73 204.26-21.36 203.28-21 202.35-20.5 201.43-20 200.69-19.41L200.69-19.41 200.25-19.65 199.13-23.75Q202.08-25.29 204.62-25.83 207.16-26.37 209.38-26.37L209.38-26.37Q211.68-26.37 213.47-25.9 215.27-25.44 216.51-24.48 217.76-23.51 218.41-22.03 219.05-20.56 219.05-18.53L219.05-18.53 219.05-6.57Q219.05-6.2 219.11-5.76 219.17-5.32 219.36-4.93 219.54-4.54 219.89-4.27 220.25-4 220.83-4L220.83-4Q221.18-4 221.66-4.1 222.15-4.2 222.64-4.42L222.64-4.42 222.64-1.49Q221.32-0.59 220.02-0.05 218.71 0.49 217.47 0.49L217.47 0.49Q216.49 0.49 215.78 0.12 215.07-0.24 214.58-0.84 214.1-1.44 213.77-2.21 213.44-2.98 213.22-3.81ZM213.12-6.96L213.12-12.62 211.58-12.62Q209.04-12.62 207.49-12.27 205.94-11.91 205.09-11.29 204.23-10.67 203.95-9.85 203.67-9.03 203.67-8.08L203.67-8.08Q203.67-7.08 203.96-6.32 204.26-5.57 204.76-5.05 205.26-4.54 205.94-4.27 206.63-4 207.41-4L207.41-4Q207.99-4 208.63-4.14 209.26-4.27 209.96-4.61 210.65-4.96 211.44-5.52 212.22-6.08 213.12-6.96L213.12-6.96ZM227.91 0L227.91-25.88 232.7-25.88 233.53-18.16Q233.87-18.8 234.24-19.47 234.6-20.14 234.97-20.76 235.33-21.39 235.65-21.9 235.97-22.41 236.19-22.75L236.19-22.75Q236.7-23.51 237.35-24.18 238-24.85 238.75-25.33 239.51-25.81 240.39-26.09 241.27-26.37 242.29-26.37L242.29-26.37Q243-26.37 243.71-26.2 244.42-26.03 244.9-25.66L244.9-25.66 244.27-20.21Q243.83-20.34 243.24-20.37 242.66-20.41 242.19-20.41L242.19-20.41Q240.63-20.41 239.41-19.96 238.19-19.51 237.2-18.71 236.21-17.92 235.4-16.85 234.58-15.77 233.82-14.53L233.82-14.53 233.82 0 227.91 0ZM270.61-5.32L270.61-2.37Q269.54-1.61 268.29-1.07 267.05-0.54 265.73-0.18 264.41 0.17 263.1 0.33 261.8 0.49 260.62 0.49L260.62 0.49Q257.91 0.49 255.58-0.34 253.25-1.17 251.53-2.78 249.81-4.39 248.83-6.75 247.86-9.11 247.86-12.16L247.86-12.16Q247.86-15.41 248.95-18.04 250.05-20.68 251.9-22.52 253.74-24.37 256.17-25.37 258.6-26.37 261.23-26.37L261.23-26.37Q263.43-26.37 265.32-25.65 267.22-24.93 268.6-23.51 269.98-22.09 270.76-19.97 271.54-17.85 271.54-15.04L271.54-15.04Q271.54-14.36 271.48-13.59 271.42-12.82 271.27-12.08L271.27-12.08 253.98-12.08Q253.98-10.11 254.68-8.59 255.38-7.08 256.65-6.07 257.91-5.05 259.7-4.53 261.48-4 263.63-4L263.63-4Q264.24-4 265.06-4.05 265.87-4.1 266.8-4.25 267.73-4.39 268.71-4.65 269.68-4.91 270.61-5.32L270.61-5.32ZM253.98-14.97L266.04-14.97Q266.04-16.75 265.59-18.09 265.14-19.43 264.36-20.34 263.58-21.24 262.54-21.69 261.5-22.14 260.31-22.14L260.31-22.14Q258.96-22.14 257.82-21.61 256.67-21.07 255.81-20.1 254.96-19.14 254.47-17.82 253.98-16.5 253.98-14.97L253.98-14.97ZM278.3 0L278.3-25.88 283.08-25.88 283.91-21.46Q284.77-22.24 285.84-23.11 286.92-23.97 288.19-24.69 289.46-25.42 290.86-25.89 292.26-26.37 293.78-26.37L293.78-26.37Q295.56-26.37 297.01-25.7 298.46-25.02 299.49-23.82 300.51-22.61 301.08-20.92 301.64-19.24 301.64-17.24L301.64-17.24 301.64 0 295.71 0 295.71-16.53Q295.71-17.85 295.34-18.85 294.97-19.85 294.33-20.51 293.68-21.17 292.79-21.51 291.9-21.85 290.87-21.85L290.87-21.85Q289.06-21.85 287.45-20.92 285.84-20 284.21-18.48L284.21-18.48 284.21 0 278.3 0ZM330.96-5.32L330.96-2.37Q329.88-1.61 328.64-1.07 327.39-0.54 326.07-0.18 324.76 0.17 323.45 0.33 322.14 0.49 320.97 0.49L320.97 0.49Q318.26 0.49 315.93-0.34 313.6-1.17 311.88-2.78 310.16-4.39 309.18-6.75 308.2-9.11 308.2-12.16L308.2-12.16Q308.2-15.41 309.3-18.04 310.4-20.68 312.24-22.52 314.09-24.37 316.52-25.37 318.94-26.37 321.58-26.37L321.58-26.37Q323.78-26.37 325.67-25.65 327.56-24.93 328.94-23.51 330.32-22.09 331.1-19.97 331.88-17.85 331.88-15.04L331.88-15.04Q331.88-14.36 331.82-13.59 331.76-12.82 331.62-12.08L331.62-12.08 314.33-12.08Q314.33-10.11 315.03-8.59 315.72-7.08 316.99-6.07 318.26-5.05 320.04-4.53 321.83-4 323.97-4L323.97-4Q324.58-4 325.4-4.05 326.22-4.1 327.15-4.25 328.08-4.39 329.05-4.65 330.03-4.91 330.96-5.32L330.96-5.32ZM314.33-14.97L326.39-14.97Q326.39-16.75 325.94-18.09 325.49-19.43 324.71-20.34 323.93-21.24 322.89-21.69 321.85-22.14 320.65-22.14L320.65-22.14Q319.31-22.14 318.16-21.61 317.02-21.07 316.16-20.1 315.31-19.14 314.82-17.82 314.33-16.5 314.33-14.97L314.33-14.97ZM337.01-1.22L338.06-5.66 338.5-5.93Q339.45-5.42 340.49-5 341.53-4.59 342.55-4.31 343.58-4.03 344.55-3.88 345.53-3.74 346.38-3.74L346.38-3.74Q348.61-3.74 349.86-4.66 351.12-5.59 351.12-7.03L351.12-7.03Q351.12-8.01 350.55-8.64 349.97-9.28 349.03-9.73 348.09-10.18 346.9-10.52 345.7-10.86 344.44-11.24 343.19-11.62 341.99-12.11 340.79-12.6 339.85-13.35 338.91-14.11 338.34-15.2 337.77-16.28 337.77-17.87L337.77-17.87Q337.77-19.65 338.53-21.22 339.3-22.78 340.73-23.91 342.16-25.05 344.2-25.71 346.24-26.37 348.78-26.37L348.78-26.37Q349.41-26.37 350.25-26.32 351.1-26.27 352.01-26.16 352.93-26.05 353.85-25.88 354.78-25.71 355.59-25.44L355.59-25.44 354.51-21.07 353.98-20.75Q353.24-21.12 352.4-21.39 351.56-21.66 350.72-21.81 349.87-21.97 349.08-22.06 348.29-22.14 347.68-22.14L347.68-22.14Q345.53-22.14 344.32-21.29 343.11-20.43 343.11-18.99L343.11-18.99Q343.11-17.99 343.7-17.35 344.28-16.7 345.22-16.25 346.16-15.8 347.38-15.47 348.61-15.14 349.86-14.76 351.12-14.38 352.34-13.89 353.56-13.4 354.5-12.65 355.44-11.89 356.03-10.79 356.61-9.69 356.61-8.08L356.61-8.08Q356.61-6.27 355.83-4.7 355.05-3.13 353.61-1.98 352.17-0.83 350.14-0.17 348.12 0.49 345.65 0.49L345.65 0.49Q343.62 0.49 341.35 0.05 339.08-0.39 337.01-1.22L337.01-1.22ZM361.49-1.22L362.54-5.66 362.98-5.93Q363.93-5.42 364.97-5 366.01-4.59 367.04-4.31 368.06-4.03 369.04-3.88 370.01-3.74 370.87-3.74L370.87-3.74Q373.09-3.74 374.35-4.66 375.6-5.59 375.6-7.03L375.6-7.03Q375.6-8.01 375.03-8.64 374.46-9.28 373.52-9.73 372.58-10.18 371.38-10.52 370.18-10.86 368.93-11.24 367.67-11.62 366.47-12.11 365.28-12.6 364.34-13.35 363.4-14.11 362.82-15.2 362.25-16.28 362.25-17.87L362.25-17.87Q362.25-19.65 363.02-21.22 363.79-22.78 365.22-23.91 366.64-25.05 368.68-25.71 370.72-26.37 373.26-26.37L373.26-26.37Q373.9-26.37 374.74-26.32 375.58-26.27 376.5-26.16 377.41-26.05 378.34-25.88 379.27-25.71 380.07-25.44L380.07-25.44 379-21.07 378.46-20.75Q377.73-21.12 376.89-21.39 376.04-21.66 375.2-21.81 374.36-21.97 373.57-22.06 372.77-22.14 372.16-22.14L372.16-22.14Q370.01-22.14 368.81-21.29 367.6-20.43 367.6-18.99L367.6-18.99Q367.6-17.99 368.18-17.35 368.77-16.7 369.71-16.25 370.65-15.8 371.87-15.47 373.09-15.14 374.35-14.76 375.6-14.38 376.83-13.89 378.05-13.4 378.99-12.65 379.93-11.89 380.51-10.79 381.1-9.69 381.1-8.08L381.1-8.08Q381.1-6.27 380.32-4.7 379.54-3.13 378.1-1.98 376.65-0.83 374.63-0.17 372.6 0.49 370.14 0.49L370.14 0.49Q368.11 0.49 365.84 0.05 363.57-0.39 361.49-1.22L361.49-1.22Z" opacity="1" transform="matrix(1,0,0,1,0,0)" fill="black" class="wordmark-text-0" id="SvgjsPath1751"></path></svg></g></svg></g><g transform="matrix(1,0,0,1,46.68638976,29.38379872722176)"><svg viewBox="0 0 151.05858048 13.841653678680512" height="13.841653678680512" width="151.05858048"><g transform="matrix(1,0,0,1,0,0)"><svg width="151.05858048" viewBox="4.25 -37 413.46 37.5" height="13.841653678680512" data-palette-color="#ffffff"><path d="M39.45 0L34.95 0 34.95-27.1 23.25-6.25 20.5-6.25 8.75-27.1 8.75 0 4.25 0 4.25-35.5 9-35.5 21.85-12.45 34.75-35.5 39.45-35.5 39.45 0ZM44.95-7.55L44.95-7.55Q44.95-10.05 46.37-11.88 47.8-13.7 50.3-14.7 52.8-15.7 56.1-15.7L56.1-15.7Q57.85-15.7 59.8-15.43 61.75-15.15 63.25-14.6L63.25-14.6 63.25-16.5Q63.25-19.5 61.45-21.23 59.65-22.95 56.35-22.95L56.35-22.95Q54.2-22.95 52.22-22.18 50.25-21.4 48.05-19.95L48.05-19.95 46.45-23.05Q49-24.8 51.55-25.68 54.1-26.55 56.85-26.55L56.85-26.55Q61.85-26.55 64.75-23.78 67.65-21 67.65-16.05L67.65-16.05 67.65-5Q67.65-4.2 67.97-3.83 68.3-3.45 69.05-3.4L69.05-3.4 69.05 0Q68.4 0.1 67.92 0.15 67.45 0.2 67.15 0.2L67.15 0.2Q65.6 0.2 64.82-0.65 64.05-1.5 63.95-2.45L63.95-2.45 63.85-4.1Q62.15-1.9 59.4-0.7 56.65 0.5 53.95 0.5L53.95 0.5Q51.35 0.5 49.3-0.58 47.25-1.65 46.1-3.48 44.95-5.3 44.95-7.55ZM61.95-5.7L61.95-5.7Q62.55-6.4 62.9-7.13 63.25-7.85 63.25-8.35L63.25-8.35 63.25-11.6Q61.7-12.2 60-12.53 58.3-12.85 56.65-12.85L56.65-12.85Q53.3-12.85 51.22-11.53 49.15-10.2 49.15-7.9L49.15-7.9Q49.15-6.65 49.82-5.48 50.5-4.3 51.82-3.55 53.15-2.8 55.1-2.8L55.1-2.8Q57.15-2.8 59-3.63 60.85-4.45 61.95-5.7ZM97.85 0L93.1 0 84.05-12.7 79.1-8.05 79.1 0 74.7 0 74.7-36.5 79.1-36.5 79.1-12.65 92.6-26.05 97.35-26.05 86.95-15.25 97.85 0ZM111.84 0.5L111.84 0.5Q108.89 0.5 106.47-0.58 104.04-1.65 102.27-3.53 100.49-5.4 99.52-7.85 98.54-10.3 98.54-13.05L98.54-13.05Q98.54-16.75 100.24-19.8 101.94-22.85 104.97-24.7 107.99-26.55 111.89-26.55L111.89-26.55Q115.84-26.55 118.77-24.68 121.69-22.8 123.32-19.78 124.94-16.75 124.94-13.25L124.94-13.25Q124.94-12.75 124.92-12.28 124.89-11.8 124.84-11.55L124.84-11.55 103.19-11.55Q103.39-9 104.62-7.03 105.84-5.05 107.79-3.93 109.74-2.8 111.99-2.8L111.99-2.8Q114.39-2.8 116.52-4 118.64-5.2 119.44-7.15L119.44-7.15 123.24-6.1Q122.39-4.2 120.72-2.7 119.04-1.2 116.77-0.35 114.49 0.5 111.84 0.5ZM103.04-14.6L103.04-14.6 120.84-14.6Q120.64-17.15 119.39-19.1 118.14-21.05 116.19-22.15 114.24-23.25 111.89-23.25L111.89-23.25Q109.59-23.25 107.64-22.15 105.69-21.05 104.47-19.1 103.24-17.15 103.04-14.6ZM140.44-7.55L140.44-7.55Q140.44-10.05 141.86-11.88 143.29-13.7 145.79-14.7 148.29-15.7 151.59-15.7L151.59-15.7Q153.34-15.7 155.29-15.43 157.24-15.15 158.74-14.6L158.74-14.6 158.74-16.5Q158.74-19.5 156.94-21.23 155.14-22.95 151.84-22.95L151.84-22.95Q149.69-22.95 147.71-22.18 145.74-21.4 143.54-19.95L143.54-19.95 141.94-23.05Q144.49-24.8 147.04-25.68 149.59-26.55 152.34-26.55L152.34-26.55Q157.34-26.55 160.24-23.78 163.14-21 163.14-16.05L163.14-16.05 163.14-5Q163.14-4.2 163.46-3.83 163.79-3.45 164.54-3.4L164.54-3.4 164.54 0Q163.89 0.1 163.41 0.15 162.94 0.2 162.64 0.2L162.64 0.2Q161.09 0.2 160.31-0.65 159.54-1.5 159.44-2.45L159.44-2.45 159.34-4.1Q157.64-1.9 154.89-0.7 152.14 0.5 149.44 0.5L149.44 0.5Q146.84 0.5 144.79-0.58 142.74-1.65 141.59-3.48 140.44-5.3 140.44-7.55ZM157.44-5.7L157.44-5.7Q158.04-6.4 158.39-7.13 158.74-7.85 158.74-8.35L158.74-8.35 158.74-11.6Q157.19-12.2 155.49-12.53 153.79-12.85 152.14-12.85L152.14-12.85Q148.79-12.85 146.71-11.53 144.64-10.2 144.64-7.9L144.64-7.9Q144.64-6.65 145.31-5.48 145.99-4.3 147.31-3.55 148.64-2.8 150.59-2.8L150.59-2.8Q152.64-2.8 154.49-3.63 156.34-4.45 157.44-5.7ZM181.13-13L181.13-13Q181.13-16.7 182.66-19.78 184.18-22.85 186.86-24.7 189.53-26.55 192.98-26.55L192.98-26.55Q196.13-26.55 198.63-24.9 201.13-23.25 202.53-20.9L202.53-20.9 202.53-36.5 206.93-36.5 206.93-5Q206.93-4.2 207.26-3.83 207.58-3.45 208.33-3.4L208.33-3.4 208.33 0Q207.08 0.2 206.38 0.2L206.38 0.2Q205.08 0.2 204.11-0.7 203.13-1.6 203.13-2.7L203.13-2.7 203.13-4.9Q201.58-2.4 198.98-0.95 196.38 0.5 193.58 0.5L193.58 0.5Q190.88 0.5 188.61-0.58 186.33-1.65 184.66-3.55 182.98-5.45 182.06-7.88 181.13-10.3 181.13-13ZM202.53-9.15L202.53-9.15 202.53-16.65Q201.93-18.35 200.58-19.73 199.23-21.1 197.56-21.93 195.88-22.75 194.23-22.75L194.23-22.75Q192.28-22.75 190.71-21.93 189.13-21.1 188.01-19.73 186.88-18.35 186.28-16.6 185.68-14.85 185.68-12.95L185.68-12.95Q185.68-11 186.36-9.25 187.03-7.5 188.26-6.15 189.48-4.8 191.11-4.05 192.73-3.3 194.63-3.3L194.63-3.3Q195.83-3.3 197.11-3.75 198.38-4.2 199.53-5 200.68-5.8 201.48-6.88 202.28-7.95 202.53-9.15ZM218.68 0L214.28 0 214.28-26.1 218.68-26.1 218.68 0ZM218.68-31L214.28-31 214.28-36.5 218.68-36.5 218.68-31ZM231.58 0L227.18 0 227.18-22.65 223.63-22.65 223.63-26.1 227.18-26.1 227.18-26.65Q227.18-29.85 228.15-32.18 229.13-34.5 230.93-35.75 232.73-37 235.18-37L235.18-37Q236.73-37 238.23-36.58 239.73-36.15 240.93-35.4L240.93-35.4 239.83-32.15Q239.13-32.65 238.1-32.95 237.08-33.25 236.08-33.25L236.08-33.25Q233.93-33.25 232.75-31.58 231.58-29.9 231.58-26.8L231.58-26.8 231.58-26.1 238.53-26.1 238.53-22.65 231.58-22.65 231.58 0ZM248.73 0L244.33 0 244.33-22.65 240.78-22.65 240.78-26.1 244.33-26.1 244.33-26.65Q244.33-29.85 245.3-32.18 246.28-34.5 248.08-35.75 249.88-37 252.33-37L252.33-37Q253.88-37 255.38-36.58 256.88-36.15 258.08-35.4L258.08-35.4 256.98-32.15Q256.28-32.65 255.25-32.95 254.23-33.25 253.23-33.25L253.23-33.25Q251.08-33.25 249.9-31.58 248.73-29.9 248.73-26.8L248.73-26.8 248.73-26.1 255.68-26.1 255.68-22.65 248.73-22.65 248.73 0ZM271.02 0.5L271.02 0.5Q268.07 0.5 265.65-0.58 263.22-1.65 261.45-3.53 259.67-5.4 258.7-7.85 257.72-10.3 257.72-13.05L257.72-13.05Q257.72-16.75 259.42-19.8 261.12-22.85 264.15-24.7 267.17-26.55 271.07-26.55L271.07-26.55Q275.02-26.55 277.95-24.68 280.87-22.8 282.5-19.78 284.12-16.75 284.12-13.25L284.12-13.25Q284.12-12.75 284.1-12.28 284.07-11.8 284.02-11.55L284.02-11.55 262.37-11.55Q262.57-9 263.8-7.03 265.02-5.05 266.97-3.93 268.92-2.8 271.17-2.8L271.17-2.8Q273.57-2.8 275.7-4 277.82-5.2 278.62-7.15L278.62-7.15 282.42-6.1Q281.57-4.2 279.9-2.7 278.22-1.2 275.95-0.35 273.67 0.5 271.02 0.5ZM262.22-14.6L262.22-14.6 280.02-14.6Q279.82-17.15 278.57-19.1 277.32-21.05 275.37-22.15 273.42-23.25 271.07-23.25L271.07-23.25Q268.77-23.25 266.82-22.15 264.87-21.05 263.65-19.1 262.42-17.15 262.22-14.6ZM302.82-26.25L302.82-22.25Q299.52-22.2 297-20.58 294.47-18.95 293.42-16.1L293.42-16.1 293.42 0 289.02 0 289.02-26.1 293.12-26.1 293.12-20.05Q294.47-22.75 296.7-24.43 298.92-26.1 301.37-26.3L301.37-26.3Q301.87-26.3 302.22-26.3 302.57-26.3 302.82-26.25L302.82-26.25ZM318.12 0.5L318.12 0.5Q315.17 0.5 312.74-0.58 310.32-1.65 308.54-3.53 306.77-5.4 305.79-7.85 304.82-10.3 304.82-13.05L304.82-13.05Q304.82-16.75 306.52-19.8 308.22-22.85 311.24-24.7 314.27-26.55 318.17-26.55L318.17-26.55Q322.12-26.55 325.04-24.68 327.97-22.8 329.59-19.78 331.22-16.75 331.22-13.25L331.22-13.25Q331.22-12.75 331.19-12.28 331.17-11.8 331.12-11.55L331.12-11.55 309.47-11.55Q309.67-9 310.89-7.03 312.12-5.05 314.07-3.93 316.02-2.8 318.27-2.8L318.27-2.8Q320.67-2.8 322.79-4 324.92-5.2 325.72-7.15L325.72-7.15 329.52-6.1Q328.67-4.2 326.99-2.7 325.32-1.2 323.04-0.35 320.77 0.5 318.12 0.5ZM309.32-14.6L309.32-14.6 327.12-14.6Q326.92-17.15 325.67-19.1 324.42-21.05 322.47-22.15 320.52-23.25 318.17-23.25L318.17-23.25Q315.87-23.25 313.92-22.15 311.97-21.05 310.74-19.1 309.52-17.15 309.32-14.6ZM358.77-15.6L358.77 0 354.37 0 354.37-14.6Q354.37-18.75 353.09-20.68 351.82-22.6 349.22-22.6L349.22-22.6Q347.42-22.6 345.64-21.7 343.87-20.8 342.49-19.28 341.12-17.75 340.52-15.75L340.52-15.75 340.52 0 336.12 0 336.12-26.1 340.12-26.1 340.12-20.5Q341.17-22.35 342.82-23.7 344.47-25.05 346.57-25.8 348.67-26.55 350.97-26.55L350.97-26.55Q353.22-26.55 354.74-25.73 356.27-24.9 357.14-23.43 358.02-21.95 358.39-19.95 358.77-17.95 358.77-15.6L358.77-15.6ZM377.16 0.5L377.16 0.5Q374.21 0.5 371.79-0.58 369.36-1.65 367.59-3.55 365.81-5.45 364.84-7.9 363.86-10.35 363.86-13.1L363.86-13.1Q363.86-16.8 365.51-19.85 367.16-22.9 370.16-24.73 373.16-26.55 377.11-26.55L377.11-26.55Q380.96-26.55 383.84-24.83 386.71-23.1 388.11-20.2L388.11-20.2 383.81-18.85Q382.81-20.7 381.01-21.73 379.21-22.75 377.01-22.75L377.01-22.75Q374.61-22.75 372.64-21.5 370.66-20.25 369.51-18.07 368.36-15.9 368.36-13.1L368.36-13.1Q368.36-10.35 369.54-8.13 370.71-5.9 372.69-4.6 374.66-3.3 377.06-3.3L377.06-3.3Q378.61-3.3 380.04-3.85 381.46-4.4 382.54-5.33 383.61-6.25 384.01-7.35L384.01-7.35 388.31-6.05Q387.51-4.15 385.89-2.68 384.26-1.2 382.04-0.35 379.81 0.5 377.16 0.5ZM404.61 0.5L404.61 0.5Q401.66 0.5 399.24-0.58 396.81-1.65 395.04-3.53 393.26-5.4 392.29-7.85 391.31-10.3 391.31-13.05L391.31-13.05Q391.31-16.75 393.01-19.8 394.71-22.85 397.74-24.7 400.76-26.55 404.66-26.55L404.66-26.55Q408.61-26.55 411.54-24.68 414.46-22.8 416.09-19.78 417.71-16.75 417.71-13.25L417.71-13.25Q417.71-12.75 417.69-12.28 417.66-11.8 417.61-11.55L417.61-11.55 395.96-11.55Q396.16-9 397.39-7.03 398.61-5.05 400.56-3.93 402.51-2.8 404.76-2.8L404.76-2.8Q407.16-2.8 409.29-4 411.41-5.2 412.21-7.15L412.21-7.15 416.01-6.1Q415.16-4.2 413.49-2.7 411.81-1.2 409.54-0.35 407.26 0.5 404.61 0.5ZM395.81-14.6L395.81-14.6 413.61-14.6Q413.41-17.15 412.16-19.1 410.91-21.05 408.96-22.15 407.01-23.25 404.66-23.25L404.66-23.25Q402.36-23.25 400.41-22.15 398.46-21.05 397.24-19.1 396.01-17.15 395.81-14.6Z" opacity="1" transform="matrix(1,0,0,1,0,0)" fill="black" class="slogan-text-1" id="SvgjsPath1750"></path></svg></g></svg></g></svg></g></svg></g><g transform="matrix(1,0,0,1,92.35027163328859,0)"><svg viewBox="0 0 59.73081673342282 59.73757522495695" height="59.73757522495695" width="59.73081673342282"><g><svg xmlns="http://www.w3.org/2000/svg" data-name="Warstwa 1" viewBox="0.9624932431938872 0.9624932431938872 22.035013513612224 22.037506756806113" x="0" y="0" height="59.73757522495695" width="59.73081673342282" class="icon-icon-0" data-fill-palette-color="accent" id="SvgjsSvg1749"><path d="M15 12a3 3 0 1 0-3 3A3 3 0 0 0 15 12Zm-3 2a2 2 0 1 1 2-2A2 2 0 0 1 12 14ZM9 18v5h6V18a3 3 0 0 0-6 0Zm1 0a2 2 0 0 1 4 0v4H10Zm12.85-5.15l-2 2a0.48 0.48 0 0 1-0.7 0 0.48 0.48 0 0 1 0-0.7L21.29 13H18.5a0.5 0.5 0 0 1 0-1h2.79l-1.14-1.15a0.49 0.49 0 0 1 0.7-0.7l2 2a0.36 0.36 0 0 1 0.11 0.16 0.5 0.5 0 0 1 0 0.38A0.36 0.36 0 0 1 22.85 12.85ZM6 12.5a0.5 0.5 0 0 1-0.5 0.5H2.71l1.14 1.15a0.48 0.48 0 0 1 0 0.7 0.48 0.48 0 0 1-0.7 0l-2-2A0.36 0.36 0 0 1 1 12.69a0.5 0.5 0 0 1 0-0.38 0.36 0.36 0 0 1 0.11-0.16l2-2a0.49 0.49 0 1 1 0.7 0.7L2.71 12H5.5A0.5 0.5 0 0 1 6 12.5ZM9.65 3.85a0.48 0.48 0 0 1 0-0.7l2-2A0.36 0.36 0 0 1 11.81 1a0.5 0.5 0 0 1 0.38 0 0.36 0.36 0 0 1 0.16 0.11l2 2a0.48 0.48 0 0 1 0 0.7 0.48 0.48 0 0 1-0.7 0L12.5 2.71V5.5a0.5 0.5 0 0 1-1 0V2.71L10.35 3.85A0.48 0.48 0 0 1 9.65 3.85Zm8.5 1.3l2.09-2.1L18.49 3A0.5 0.5 0 0 1 18 2.49 0.51 0.51 0 0 1 18.51 2l2.92 0.09 0.09 0a0.15 0.15 0 0 1 0.09 0 0.47 0.47 0 0 1 0.26 0.26 0.15 0.15 0 0 1 0 0.09 0.29 0.29 0 0 1 0 0.09L22 5.49a0.5 0.5 0 0 1-0.49 0.51h0a0.5 0.5 0 0 1-0.5-0.49L21 3.76l-2.1 2.09a0.48 0.48 0 0 1-0.7 0A0.48 0.48 0 0 1 18.15 5.15ZM5.51 3l-1.75 0 2.09 2.1a0.48 0.48 0 0 1 0 0.7 0.48 0.48 0 0 1-0.7 0L3.05 3.76 3 5.51A0.5 0.5 0 0 1 2.5 6h0A0.5 0.5 0 0 1 2 5.49l0.09-2.92a0.29 0.29 0 0 1 0-0.09 0.15 0.15 0 0 1 0-0.09 0.47 0.47 0 0 1 0.26-0.26 0.15 0.15 0 0 1 0.09 0l0.09 0L5.49 2A0.51 0.51 0 0 1 6 2.49 0.5 0.5 0 0 1 5.51 3Z" fill="white"></path></svg></g></svg></g><g></g></svg></g></svg></g><g><path d="M91.23 63.701A122.216 122.216 0 0 1 304.29 63.701L302.147 63.701A120.072 120.072 0 0 0 93.373 63.701L91.23 63.701M91.23 183.499A122.216 122.216 0 0 0 304.29 183.499L302.147 183.499A120.072 120.072 0 0 1 93.373 183.499L91.23 183.499" fill="black" stroke="transparent"></path></g></svg></g><defs><mask></mask></defs></svg><rect width="395.52" height="247.2" fill="black" stroke="none" visibility="hidden"></rect></g></mask><linearGradient x1="0.054" x2="0.941" y1="0.5" y2="0.5" id="9a940fd4-e83e-4c5f-9ad5-d2f1637f1286"><stop stop-color="#0f3054" offset="0"></stop><stop stop-color="#3b8dcb" offset="0.498"></stop><stop stop-color="#0f3054" offset="1"></stop></linearGradient><rect width="395.52" height="247.2" fill="#000000" mask="url(#f4603d8a-87af-47ed-9353-3ce445816866)" data-fill-palette-color="accent"></rect></svg><rect width="395.52" height="247.2" fill="none" stroke="none" visibility="hidden"></rect></g></svg></g></svg>